<mxfile host="app.diagrams.net" agent="Mozilla/5.0 (Windows NT 10.0; Win64; x64) AppleWebKit/537.36 (KHTML, like Gecko) Chrome/131.0.0.0 Safari/537.36" version="26.0.5">
  <diagram name="Page-1" id="8YempFql3-MpRgwH2WPy">
    <mxGraphModel dx="2284" dy="818" grid="1" gridSize="10" guides="1" tooltips="1" connect="1" arrows="1" fold="1" page="1" pageScale="1" pageWidth="850" pageHeight="1100" math="0" shadow="0">
      <root>
        <mxCell id="0" />
        <mxCell id="1" parent="0" />
        <mxCell id="mrZinSv3Dg7bM6D8Aj3P-1" value="" style="whiteSpace=wrap;html=1;aspect=fixed;" vertex="1" parent="1">
          <mxGeometry x="80" y="60" width="150" height="150" as="geometry" />
        </mxCell>
        <mxCell id="mrZinSv3Dg7bM6D8Aj3P-2" value="" style="whiteSpace=wrap;html=1;aspect=fixed;" vertex="1" parent="1">
          <mxGeometry x="80" y="260" width="150" height="150" as="geometry" />
        </mxCell>
        <mxCell id="mrZinSv3Dg7bM6D8Aj3P-3" value="" style="whiteSpace=wrap;html=1;aspect=fixed;" vertex="1" parent="1">
          <mxGeometry x="80" y="450" width="150" height="150" as="geometry" />
        </mxCell>
        <mxCell id="mrZinSv3Dg7bM6D8Aj3P-4" value="" style="whiteSpace=wrap;html=1;aspect=fixed;" vertex="1" parent="1">
          <mxGeometry x="-260" y="250" width="170" height="170" as="geometry" />
        </mxCell>
        <mxCell id="mrZinSv3Dg7bM6D8Aj3P-5" value="" style="shape=internalStorage;whiteSpace=wrap;html=1;backgroundOutline=1;" vertex="1" parent="1">
          <mxGeometry x="240" y="95" width="80" height="80" as="geometry" />
        </mxCell>
        <mxCell id="mrZinSv3Dg7bM6D8Aj3P-6" value="" style="shape=internalStorage;whiteSpace=wrap;html=1;backgroundOutline=1;" vertex="1" parent="1">
          <mxGeometry x="240" y="485" width="80" height="80" as="geometry" />
        </mxCell>
        <mxCell id="mrZinSv3Dg7bM6D8Aj3P-7" value="" style="shape=internalStorage;whiteSpace=wrap;html=1;backgroundOutline=1;" vertex="1" parent="1">
          <mxGeometry x="240" y="295" width="80" height="80" as="geometry" />
        </mxCell>
        <mxCell id="mrZinSv3Dg7bM6D8Aj3P-8" value="" style="shape=internalStorage;whiteSpace=wrap;html=1;backgroundOutline=1;" vertex="1" parent="1">
          <mxGeometry x="500" y="295" width="80" height="80" as="geometry" />
        </mxCell>
      </root>
    </mxGraphModel>
  </diagram>
</mxfile>
